HIERARCHY
ROOT hip
{
  OFFSET 0.00112043 5.09927 -9.65472
  CHANNELS 6 Xposition Yposition Zposition Zrotation Xrotation Yrotation
  JOINT abdomen
  {
    OFFSET 0 -1.186 -1.5018
    CHANNELS 3 Zrotation Xrotation Yrotation
    JOINT abdomen2
    {
      OFFSET 0 9.964 0.2134
      CHANNELS 3 Zrotation Xrotation Yrotation
      JOINT chest
      {
        OFFSET 0 13.134 -3.2573
        CHANNELS 3 Zrotation Xrotation Yrotation
        JOINT neck
        {
          OFFSET 0 20.686 -1.6905
          CHANNELS 3 Zrotation Xrotation Yrotation
          JOINT head
          {
            OFFSET 0 7.238 -0.1237
            CHANNELS 3 Zrotation Xrotation Yrotation
            End Site
            {
              OFFSET 0 0 0
            }
          }
        }
        JOINT lCollar
        {
          OFFSET 1.7069 20.075 5.0056
          CHANNELS 3 Zrotation Xrotation Yrotation
          JOINT lShldr
          {
            OFFSET 13.6458 -0.047 -4.849
            CHANNELS 3 Zrotation Xrotation Yrotation
            JOINT lForeArm
            {
              OFFSET 28.3255 -0.9759 2.2888
              CHANNELS 3 Zrotation Xrotation Yrotation
              JOINT lHand
              {
                OFFSET 22.1583 -0.53 10.8316
                CHANNELS 3 Zrotation Xrotation Yrotation
                JOINT lThumb1
                {
                  OFFSET 0.786 0.112 2.5817
                  CHANNELS 3 Zrotation Xrotation Yrotation
                  JOINT lThumb2
                  {
                    OFFSET 0.3601 -0.878 4.2331
                    CHANNELS 3 Zrotation Xrotation Yrotation
                    JOINT lThumb2_End
                    {
                      OFFSET 1.8127 -1.216 2.2227
                      CHANNELS 3 Zrotation Xrotation Yrotation
                      End Site
                      {
                        OFFSET 0.0181 -0.0122 0.0222
                      }
                    }
                  }
                }
                JOINT lCarpal1
                {
                  OFFSET 0.9571 1.114 1.7695
                  CHANNELS 3 Zrotation Xrotation Yrotation
                  JOINT lIndex1
                  {
                    OFFSET 4.1246 0.487 4.1451
                    CHANNELS 3 Zrotation Xrotation Yrotation
                    JOINT lIndex2
                    {
                      OFFSET 3.4052 -1.454 2.7682
                      CHANNELS 3 Zrotation Xrotation Yrotation
                      JOINT lIndex2_End
                      {
                        OFFSET 1.4531 -1.795 1.2713
                        CHANNELS 3 Zrotation Xrotation Yrotation
                        End Site
                        {
                          OFFSET 0.0145 -0.0179 0.0127
                        }
                      }
                    }
                  }
                  JOINT lMid1
                  {
                    OFFSET 5.6954 0.21 2.1184
                    CHANNELS 3 Zrotation Xrotation Yrotation
                    JOINT lMid2
                    {
                      OFFSET 3.9766 -1.54 2.3863
                      CHANNELS 3 Zrotation Xrotation Yrotation
                      JOINT lMid2_End
                      {
                        OFFSET 1.4042 -1.926 1.125
                        CHANNELS 3 Zrotation Xrotation Yrotation
                        End Site
                        {
                          OFFSET 0.014 -0.0193 0.0113
                        }
                      }
                    }
                  }
                }
                JOINT lCarpal2
                {
                  OFFSET 2.0956 0.66 -0.3894
                  CHANNELS 3 Zrotation Xrotation Yrotation
                  JOINT lRing1
                  {
                    OFFSET 5.0395 -0.09 2.4971
                    CHANNELS 3 Zrotation Xrotation Yrotation
                    JOINT lRing2
                    {
                      OFFSET 3.7921 -1.552 1.4806
                      CHANNELS 3 Zrotation Xrotation Yrotation
                      JOINT lRing2_End
                      {
                        OFFSET 1.4655 -1.808 0.9609
                        CHANNELS 3 Zrotation Xrotation Yrotation
                        End Site
                        {
                          OFFSET 0.0147 -0.0181 0.0096
                        }
                      }
                    }
                  }
                  JOINT lPinky1
                  {
                    OFFSET 4.9141 -1.269 0.3591
                    CHANNELS 3 Zrotation Xrotation Yrotation
                    JOINT lPinky2
                    {
                      OFFSET 3.1477 -1.685 0.8462
                      CHANNELS 3 Zrotation Xrotation Yrotation
                      JOINT lPinky2_End
                      {
                        OFFSET 0.8055 -1.585 0.7955
                        CHANNELS 3 Zrotation Xrotation Yrotation
                        End Site
                        {
                          OFFSET 0.0081 -0.0158 0.008
                        }
                      }
                    }
                  }
                }
              }
            }
          }
        }
        JOINT rCollar
        {
          OFFSET -1.7069 20.075 5.0056
          CHANNELS 3 Zrotation Xrotation Yrotation
          JOINT rShldr
          {
            OFFSET -13.6458 -0.047 -4.849
            CHANNELS 3 Zrotation Xrotation Yrotation
            JOINT rForeArm
            {
              OFFSET -28.3255 -0.9759 2.2888
              CHANNELS 3 Zrotation Xrotation Yrotation
              JOINT rHand
              {
                OFFSET -22.1583 -0.53 10.8316
                CHANNELS 3 Zrotation Xrotation Yrotation
                JOINT rThumb1
                {
                  OFFSET -0.786 0.112 2.5817
                  CHANNELS 3 Zrotation Xrotation Yrotation
                  JOINT rThumb2
                  {
                    OFFSET -0.3601 -0.878 4.2331
                    CHANNELS 3 Zrotation Xrotation Yrotation
                    JOINT rThumb2_End
                    {
                      OFFSET -1.8127 -1.216 2.2227
                      CHANNELS 3 Zrotation Xrotation Yrotation
                      End Site
                      {
                        OFFSET -0.0181 -0.0122 0.0222
                      }
                    }
                  }
                }
                JOINT rCarpal1
                {
                  OFFSET -0.9571 1.114 1.7695
                  CHANNELS 3 Zrotation Xrotation Yrotation
                  JOINT rIndex1
                  {
                    OFFSET -4.1246 0.487 4.1451
                    CHANNELS 3 Zrotation Xrotation Yrotation
                    JOINT rIndex2
                    {
                      OFFSET -3.4052 -1.454 2.7682
                      CHANNELS 3 Zrotation Xrotation Yrotation
                      JOINT rIndex2_End
                      {
                        OFFSET -1.4531 -1.795 1.2713
                        CHANNELS 3 Zrotation Xrotation Yrotation
                        End Site
                        {
                          OFFSET -0.0145 -0.018 0.0127
                        }
                      }
                    }
                  }
                  JOINT rMid1
                  {
                    OFFSET -5.6954 0.21 2.1184
                    CHANNELS 3 Zrotation Xrotation Yrotation
                    JOINT rMid2
                    {
                      OFFSET -3.9766 -1.54 2.3863
                      CHANNELS 3 Zrotation Xrotation Yrotation
                      JOINT rMid2_End
                      {
                        OFFSET -1.4042 -1.926 1.125
                        CHANNELS 3 Zrotation Xrotation Yrotation
                        End Site
                        {
                          OFFSET -0.014 -0.0193 0.0113
                        }
                      }
                    }
                  }
                }
                JOINT rCarpal2
                {
                  OFFSET -2.0956 0.66 -0.3894
                  CHANNELS 3 Zrotation Xrotation Yrotation
                  JOINT rRing1
                  {
                    OFFSET -5.0395 -0.09 2.4971
                    CHANNELS 3 Zrotation Xrotation Yrotation
                    JOINT rRing2
                    {
                      OFFSET -3.7921 -1.552 1.4806
                      CHANNELS 3 Zrotation Xrotation Yrotation
                      JOINT rRing2_End
                      {
                        OFFSET -1.4655 -1.808 0.9609
                        CHANNELS 3 Zrotation Xrotation Yrotation
                        End Site
                        {
                          OFFSET -0.0147 -0.0181 0.0096
                        }
                      }
                    }
                  }
                  JOINT rPinky1
                  {
                    OFFSET -4.9141 -1.269 0.3592
                    CHANNELS 3 Zrotation Xrotation Yrotation
                    JOINT rPinky2
                    {
                      OFFSET -3.1477 -1.685 0.8462
                      CHANNELS 3 Zrotation Xrotation Yrotation
                      JOINT rPinky2_End
                      {
                        OFFSET -0.8055 -1.585 0.7955
                        CHANNELS 3 Zrotation Xrotation Yrotation
                        End Site
                        {
                          OFFSET -0.0081 -0.0158 0.008
                        }
                      }
                    }
                  }
                }
              }
            }
          }
        }
      }
    }
  }
  JOINT lThigh
  {
    OFFSET 8.367 -8.2066 0.5982
    CHANNELS 3 Zrotation Xrotation Yrotation
    JOINT lShin
    {
      OFFSET 2.1923 -43.463 -0.4932
      CHANNELS 3 Zrotation Xrotation Yrotation
      JOINT lFoot
      {
        OFFSET 0.7333 -45.8593 -2.6451
        CHANNELS 3 Zrotation Xrotation Yrotation
        End Site
        {
          OFFSET 2.6618 -4.2699 12.3931
        }
      }
    }
  }
  JOINT rThigh
  {
    OFFSET -8.367 -8.2066 0.5982
    CHANNELS 3 Zrotation Xrotation Yrotation
    JOINT rShin
    {
      OFFSET -2.1923 -43.463 -0.4931
      CHANNELS 3 Zrotation Xrotation Yrotation
      JOINT rFoot
      {
        OFFSET -0.7333 -45.8593 -2.6451
        CHANNELS 3 Zrotation Xrotation Yrotation
        End Site
        {
          OFFSET -2.6618 -4.2699 12.3931
        }
      }
    }
  }
}
MOTION
Frames:	4
Frame Time:	0.0333333
0 91.7903 2.51682 0 0 -0 0 0 -0 0 0 -0 0 0 -0 0 0 -0 0 0 -0 0 0 -0 1.66051 0.0835086 5.75766 -0.0175111 0.895433 15.7816 7.95139e-016 -1.98785e-016 -0 5.46658e-016 -3.97569e-016 -0 5.96354e-016 0 -0 3.97569e-016 1.98785e-016 9.54166e-015 1.49089e-016 -3.97569e-016 -0 6.4605e-016 0 3.18055e-015 5.96354e-016 0 3.18055e-015 8.94531e-016 -1.98785e-016 6.36111e-015 6.4605e-016 0 3.18055e-015 5.96354e-016 0 3.18055e-015 8.94531e-016 -1.98785e-016 6.36111e-015 1.49089e-016 -3.97569e-016 -0 6.4605e-016 0 3.18055e-015 5.96354e-016 0 3.18055e-015 8.94531e-016 -1.98785e-016 6.36111e-015 6.4605e-016 0 3.18055e-015 5.96354e-016 0 3.18055e-015 8.94531e-016 -1.98785e-016 6.36111e-015 0 0 -0 -1.4496 0.0636048 -5.0245 -1.74811 1.20616 -16.8394 -1.19271e-015 1.98785e-016 -3.18055e-015 -3.97569e-016 1.98785e-016 -3.18055e-015 -2.98177e-016 1.98785e-016 -3.18055e-015 -2.98177e-016 3.97569e-016 -0 4.96962e-016 0 -6.36111e-015 -9.93923e-017 3.97569e-016 -0 -8.94531e-016 5.96354e-016 -0 -3.97569e-016 3.97569e-016 -0 -9.93923e-017 3.97569e-016 -0 -8.94531e-016 5.96354e-016 -0 -3.97569e-016 3.97569e-016 -0 4.96962e-016 0 -6.36111e-015 -9.93923e-017 3.97569e-016 -0 -8.94531e-016 5.96354e-016 -0 -3.97569e-016 3.97569e-016 -0 -9.93923e-017 3.97569e-016 -0 -8.94531e-016 5.96354e-016 -0 -3.97569e-016 3.97569e-016 -0 -4.66111 -0.998717 0.12318 0.00986924 1.54847 0.176523 4.65186 -0.572283 -0.254274 4.66111 -0.998765 -0.123176 -0.00986867 1.54869 -0.176537 -4.65186 -0.572453 0.25427 
41.6021 31.4109 4.12168 -0 -64.0139 -0 -1.80078 -7.6147 -0.879346 -3.77097 -15.1965 -2.02934 -3.77097 -15.1965 -2.02934 -18.8862 6.43145 3.22433 -1.25312 -16.3363 0.857126 16.4751 7.30082 16.9542 -2.30301 53.3701 19.5314 12.7299 39.9847 2.04379 11.3863 -4.05274 -16.1771 1.69043e-006 -2.38216e-007 8.53586e-007 5.30114e-007 5.6158e-008 1.01455e-006 8.2181e-007 -3.63022e-007 8.3414e-007 -1.0312e-015 0 -0 1.69043e-006 -2.38216e-007 8.53586e-007 5.30114e-007 5.6158e-008 1.01455e-006 8.2181e-007 -3.63022e-007 8.3414e-007 1.69043e-006 -2.38216e-007 8.53586e-007 5.30114e-007 5.6158e-008 1.01455e-006 8.2181e-007 -3.63022e-007 8.3414e-007 -1.0312e-015 0 -0 1.69043e-006 -2.38216e-007 8.53586e-007 5.30114e-007 5.6158e-008 1.01455e-006 8.2181e-007 -3.63022e-007 8.3414e-007 1.69043e-006 -2.38216e-007 8.53586e-007 5.30114e-007 5.6158e-008 1.01455e-006 8.2181e-007 -3.63022e-007 8.3414e-007 -14.3063 5.60317 -12.4323 0.357713 53.2875 -10.2387 -7.60451 41.7494 -11.9467 -8.96147 1.88018 21.4726 -6.4605e-016 7.95139e-016 3.18055e-015 -1.93815e-015 1.19271e-015 9.54166e-015 -2.83268e-015 1.68967e-015 3.18055e-015 9.44227e-016 3.97569e-016 3.18055e-015 -4.27387e-015 4.96962e-016 1.27222e-014 -1.2921e-015 9.93923e-016 6.36111e-015 -3.47873e-015 9.93923e-016 -0 -4.27387e-015 4.96962e-016 1.27222e-014 -1.2921e-015 9.93923e-016 6.36111e-015 -3.47873e-015 9.93923e-016 -0 9.44227e-016 3.97569e-016 3.18055e-015 -4.27387e-015 4.96962e-016 1.27222e-014 -1.2921e-015 9.93923e-016 6.36111e-015 -3.47873e-015 9.93923e-016 -0 -4.27387e-015 4.96962e-016 1.27222e-014 -1.2921e-015 9.93923e-016 6.36111e-015 -3.47873e-015 9.93923e-016 -0 42.7199 12.9703 40.9106 124.445 30.6872 -163.55 -49.0775 44.2462 39.1681 -38.0398 11.8535 -50.3538 -134.032 27.7013 166.139 44.2222 36.7536 -69.1182 
41.6011 31.2956 4.12696 -0 -64.0139 -0 -1.80253 -7.40517 -0.859478 -3.76561 -14.7783 -1.98078 -3.76562 -14.7782 -1.98078 -18.8705 6.01116 3.07981 -1.25757 -17.0018 0.841953 16.1771 7.21261 17.2275 -2.30301 53.3701 19.5314 12.7299 39.9847 2.04378 11.1392 -4.80795 -15.9145 8.20014e-007 -3.6408e-007 8.35445e-007 2.19172e-008 2.11694e-007 1.61791e-008 8.20014e-007 -3.6408e-007 8.35445e-007 2.62147e-015 4.96962e-017 -1.59028e-015 8.20014e-007 -3.6408e-007 8.35445e-007 2.19172e-008 2.11694e-007 1.61791e-008 8.20014e-007 -3.6408e-007 8.35445e-007 8.20014e-007 -3.6408e-007 8.35445e-007 2.19172e-008 2.11694e-007 1.61791e-008 8.20014e-007 -3.6408e-007 8.35445e-007 2.62147e-015 4.96962e-017 -1.59028e-015 8.20014e-007 -3.6408e-007 8.35445e-007 2.19172e-008 2.11694e-007 1.61791e-008 8.20014e-007 -3.6408e-007 8.35445e-007 8.20014e-007 -3.6408e-007 8.35445e-007 2.19172e-008 2.11694e-007 1.61791e-008 8.20014e-007 -3.6408e-007 8.35445e-007 -13.9721 5.54391 -12.8828 0.357702 53.2875 -10.2387 -7.60451 41.7494 -11.9467 -8.69525 1.15875 21.2704 3.8763e-015 4.96962e-016 1.27222e-014 1.59028e-015 1.09332e-015 1.59028e-014 2.73329e-015 2.5842e-015 1.59028e-014 2.43511e-015 5.96354e-016 3.18055e-015 1.68967e-015 8.94531e-016 1.90833e-014 2.78299e-015 2.68359e-015 1.59028e-014 8.94531e-016 2.28602e-015 1.59028e-014 1.68967e-015 8.94531e-016 1.90833e-014 2.78299e-015 2.68359e-015 1.59028e-014 8.94531e-016 2.28602e-015 1.59028e-014 2.43511e-015 5.96354e-016 3.18055e-015 1.68967e-015 8.94531e-016 1.90833e-014 2.78299e-015 2.68359e-015 1.59028e-014 8.94531e-016 2.28602e-015 1.59028e-014 1.68967e-015 8.94531e-016 1.90833e-014 2.78299e-015 2.68359e-015 1.59028e-014 8.94531e-016 2.28602e-015 1.59028e-014 42.9601 12.8802 40.8789 124.453 30.6848 -163.559 -48.8042 44.4525 39.0373 -38.2981 11.804 -50.3032 -134.042 27.6979 166.151 43.9375 36.9545 -68.9957 
41.6002 31.1803 4.1323 -0 -64.0139 -0 -1.80425 -7.19535 -0.83957 -3.76044 -14.3594 -1.93224 -3.76044 -14.3594 -1.93224 -18.8559 5.59072 2.93547 -1.26222 -17.6678 0.826659 15.8795 7.12294 17.5002 -2.30301 53.3701 19.5314 12.7299 39.9847 2.04378 10.8951 -5.56492 -15.6547 -1.6598e-007 2.8995e-007 5.91247e-007 -2.7395e-015 -2.23633e-016 3.18055e-015 1.6598e-007 -2.8995e-007 -5.91247e-007 -2.04997e-016 6.21202e-016 -1.59028e-015 -1.6598e-007 2.8995e-007 5.91247e-007 -1.23464e-015 7.45443e-017 1.59028e-015 1.6598e-007 -2.8995e-007 -5.91247e-007 -1.6598e-007 2.8995e-007 5.91247e-007 -1.23464e-015 7.45443e-017 1.59028e-015 1.6598e-007 -2.8995e-007 -5.91247e-007 -2.04997e-016 6.21202e-016 -1.59028e-015 -1.6598e-007 2.8995e-007 5.91247e-007 -1.23464e-015 7.45443e-017 1.59028e-015 1.6598e-007 -2.8995e-007 -5.91247e-007 -1.6598e-007 2.8995e-007 5.91247e-007 -1.23464e-015 7.45443e-017 1.59028e-015 1.6598e-007 -2.8995e-007 -5.91247e-007 -13.6384 5.48199 -13.333 0.3577 53.2875 -10.2387 -7.60452 41.7494 -11.9467 -8.43142 0.435828 21.0715 9.93923e-017 -3.97569e-016 6.36111e-015 -6.78102e-007 -3.98812e-007 -2.60043e-007 1.63997e-015 5.96354e-016 6.36111e-015 -1.44119e-015 -3.97569e-016 3.18055e-015 -9.44227e-016 -3.97569e-016 9.54166e-015 -6.78102e-007 -3.98812e-007 -2.60043e-007 1.54058e-015 -3.97569e-016 -0 -9.44227e-016 -3.97569e-016 9.54166e-015 -6.78102e-007 -3.98812e-007 -2.60043e-007 1.54058e-015 -3.97569e-016 -0 -1.44119e-015 -3.97569e-016 3.18055e-015 -9.44227e-016 -3.97569e-016 9.54166e-015 -6.78102e-007 -3.98812e-007 -2.60043e-007 1.54058e-015 -3.97569e-016 -0 -9.44227e-016 -3.97569e-016 9.54166e-015 -6.78102e-007 -3.98812e-007 -2.60043e-007 1.54058e-015 -3.97569e-016 -0 43.2002 12.79 40.8475 124.462 30.6825 -163.568 -48.5291 44.6584 38.9046 -38.5564 11.7544 -50.2527 -134.052 27.6944 166.163 43.6511 37.1549 -68.8714 
